<svg width="46" height="37" viewBox="0 0 46 37" fill="none" xmlns="http://www.w3.org/2000/svg">
<g filter="url(#filter0_i_2001_449)">
<rect width="41.0584" height="29.3703" rx="5.24469" transform="matrix(0.985104 0.171958 0.13949 0.990224 0.478027 0.430664)" fill="url(#paint0_linear_2001_449)"/>
</g>
<path d="M1.84937 10.4885L15.6033 12.8894C16.0954 10.353 17.7637 5.24102 20.4996 5.08349C21.6018 5.63675 24.2431 7.39689 25.9904 10.0114M3.16265 19.8113L16.9166 22.2122C17.567 26.8292 22.1402 30.9185 24.3456 32.386C27.6295 31.8623 29.5207 26.9143 30.0558 24.5057L43.656 26.8798M42.6554 19.7767L29.0552 17.4026C28.2772 16.1361 27.04 13.3124 28.3152 12.1493" stroke="url(#paint1_linear_2001_449)" stroke-width="0.449545"/>
<defs>
<filter id="filter0_i_2001_449" x="1.15747" y="1.25391" width="43.1848" height="34.4971" filterUnits="userSpaceOnUse" color-interpolation-filters="sRGB">
<feFlood flood-opacity="0" result="BackgroundImageFix"/>
<feBlend mode="normal" in="SourceGraphic" in2="BackgroundImageFix" result="shape"/>
<feColorMatrix in="SourceAlpha" type="matrix" values="0 0 0 0 0 0 0 0 0 0 0 0 0 0 0 0 0 0 127 0" result="hardAlpha"/>
<feOffset dx="-0.449545" dy="-0.449545"/>
<feComposite in2="hardAlpha" operator="arithmetic" k2="-1" k3="1"/>
<feColorMatrix type="matrix" values="0 0 0 0 0 0 0 0 0 0 0 0 0 0 0 0 0 0 0.25 0"/>
<feBlend mode="normal" in2="shape" result="effect1_innerShadow_2001_449"/>
</filter>
<linearGradient id="paint0_linear_2001_449" x1="0" y1="0" x2="36.7878" y2="29.3703" gradientUnits="userSpaceOnUse">
<stop stop-color="#D8D8D8"/>
<stop offset="0.3125" stop-color="white"/>
<stop offset="0.630208" stop-color="#BDBDBD"/>
<stop offset="1" stop-color="#989898"/>
</linearGradient>
<linearGradient id="paint1_linear_2001_449" x1="2.18405" y1="2.32057" x2="45.0091" y2="30.3159" gradientUnits="userSpaceOnUse">
<stop stop-color="#7D7D7D"/>
<stop offset="0.494792" stop-color="white"/>
<stop offset="1" stop-color="#1C1C1C"/>
</linearGradient>
</defs>
</svg>
