<svg width="20" height="20" viewBox="0 0 20 20" fill="none" xmlns="http://www.w3.org/2000/svg">
<path d="M2.35605 5.53787C2.19288 5.15715 1.75197 4.98079 1.37125 5.14395C0.990525 5.30712 0.814162 5.74803 0.977328 6.12875L2.35605 5.53787ZM12.9893 11.1072L12.7146 10.4093L12.9893 11.1072ZM7.63934 11.5163C7.86524 11.1691 7.76692 10.7045 7.41974 10.4786C7.07255 10.2527 6.60796 10.351 6.38206 10.6982L7.63934 11.5163ZM5.20472 12.5076C4.97881 12.8548 5.07713 13.3194 5.42431 13.5453C5.7715 13.7712 6.23609 13.6729 6.46199 13.3257L5.20472 12.5076ZM19.0227 6.12875C19.1859 5.74803 19.0095 5.30712 18.6288 5.14395C18.2481 4.98079 17.8072 5.15715 17.644 5.53787L19.0227 6.12875ZM15.8334 9.27401L15.3201 8.72716V8.72716L15.8334 9.27401ZM16.553 11.0543C16.8459 11.3472 17.3208 11.3472 17.6137 11.0543C17.9066 10.7614 17.9066 10.2866 17.6137 9.99368L16.553 11.0543ZM9.25002 13.75C9.25002 14.1642 9.58581 14.5 10 14.5C10.4142 14.5 10.75 14.1642 10.75 13.75H9.25002ZM13.538 13.3257C13.764 13.6729 14.2285 13.7712 14.5757 13.5453C14.9229 13.3194 15.0212 12.8548 14.7953 12.5076L13.538 13.3257ZM4.69702 9.80434C4.98991 9.51145 4.98991 9.03657 4.69702 8.74368C4.40412 8.45079 3.92925 8.45079 3.63636 8.74368L4.69702 9.80434ZM2.38636 9.99368C2.09346 10.2866 2.09346 10.7614 2.38636 11.0543C2.67925 11.3472 3.15412 11.3472 3.44702 11.0543L2.38636 9.99368ZM10 11.6666V10.9166C7.35946 10.9166 5.46135 9.60292 4.19545 8.23964C3.56272 7.55824 3.09848 6.87448 2.79293 6.36116C2.64057 6.10521 2.52884 5.8936 2.45632 5.74855C2.42009 5.67609 2.39373 5.62041 2.37706 5.58432C2.36873 5.56629 2.36283 5.55316 2.35933 5.5453C2.35758 5.54137 2.35644 5.53875 2.35589 5.5375C2.35562 5.53687 2.35549 5.53659 2.35552 5.53665C2.35553 5.53668 2.35558 5.5368 2.35567 5.537C2.35571 5.5371 2.35581 5.53732 2.35583 5.53737C2.35593 5.53761 2.35605 5.53787 1.66669 5.83331C0.977328 6.12875 0.97746 6.12906 0.977601 6.12939C0.977661 6.12953 0.977813 6.12988 0.977933 6.13016C0.978173 6.13072 0.978453 6.13137 0.978771 6.1321C0.979409 6.13358 0.980202 6.1354 0.981153 6.13758C0.983054 6.14194 0.985583 6.14769 0.988743 6.1548C0.995063 6.16901 1.00391 6.18864 1.01531 6.21332C1.03811 6.26268 1.07116 6.33233 1.11468 6.41937C1.20167 6.59334 1.33082 6.83746 1.50399 7.12838C1.84948 7.70881 2.37482 8.48338 3.09626 9.26032C4.53869 10.8137 6.80724 12.4166 10 12.4166V11.6666ZM12.9893 11.1072L12.7146 10.4093C11.9199 10.7222 11.0184 10.9166 10 10.9166V11.6666V12.4166C11.2149 12.4166 12.3024 12.1836 13.264 11.8051L12.9893 11.1072ZM7.0107 11.1072L6.38206 10.6982L5.20472 12.5076L5.83335 12.9166L6.46199 13.3257L7.63934 11.5163L7.0107 11.1072ZM18.3334 5.83331C17.644 5.53787 17.6441 5.53772 17.6441 5.53758C17.6441 5.53754 17.6442 5.5374 17.6442 5.53732C17.6443 5.53716 17.6444 5.53703 17.6444 5.53693C17.6445 5.53672 17.6445 5.53663 17.6445 5.53664C17.6445 5.53667 17.6443 5.53713 17.6439 5.53801C17.6432 5.53978 17.6416 5.54325 17.6393 5.54836C17.6348 5.55859 17.6272 5.57536 17.6165 5.5982C17.5952 5.64388 17.5618 5.71371 17.5158 5.80375C17.4239 5.98399 17.2827 6.2442 17.0901 6.55321C16.7037 7.17338 16.1181 7.97816 15.3201 8.72716L15.8334 9.27401L16.3466 9.82086C17.2641 8.95968 17.9285 8.0441 18.3632 7.34647C18.5812 6.99658 18.7433 6.69853 18.8521 6.48523C18.9065 6.3785 18.9477 6.29274 18.976 6.23203C18.9902 6.20166 19.0011 6.17754 19.0089 6.16016C19.0128 6.15148 19.0159 6.14447 19.0182 6.13922C19.0193 6.13659 19.0203 6.1344 19.021 6.13265C19.0214 6.13178 19.0217 6.13101 19.022 6.13036C19.0222 6.13004 19.0223 6.12974 19.0224 6.12947C19.0225 6.12934 19.0225 6.12916 19.0226 6.12909C19.0226 6.12892 19.0227 6.12875 18.3334 5.83331ZM15.8334 9.27401L15.3201 8.72716C14.6132 9.39062 13.7481 10.0026 12.7146 10.4093L12.9893 11.1072L13.264 11.8051C14.5097 11.3148 15.5321 10.5854 16.3466 9.82086L15.8334 9.27401ZM15.8334 9.27401L15.303 9.80434L16.553 11.0543L17.0834 10.524L17.6137 9.99368L16.3637 8.74368L15.8334 9.27401ZM10 11.6666H9.25002V13.75H10H10.75V11.6666H10ZM12.9893 11.1072L12.3607 11.5163L13.538 13.3257L14.1667 12.9166L14.7953 12.5076L13.618 10.6982L12.9893 11.1072ZM4.16669 9.27401L3.63636 8.74368L2.38636 9.99368L2.91669 10.524L3.44702 11.0543L4.69702 9.80434L4.16669 9.27401Z" fill="#1C274C"/>
</svg>
