<svg width="20" height="20" viewBox="0 0 20 20" fill="none" xmlns="http://www.w3.org/2000/svg">
<path d="M2.7291 12.7463C2.02082 11.8261 1.66669 11.3661 1.66669 9.99992C1.66669 8.63377 2.02082 8.17369 2.7291 7.25353C4.14332 5.41622 6.51511 3.33325 10 3.33325C13.4849 3.33325 15.8567 5.41622 17.2709 7.25353C17.9792 8.17369 18.3334 8.63377 18.3334 9.99992C18.3334 11.3661 17.9792 11.8261 17.2709 12.7463C15.8567 14.5836 13.4849 16.6666 10 16.6666C6.51511 16.6666 4.14332 14.5836 2.7291 12.7463Z" stroke="#1C274C" stroke-width="1.5"/>
<path d="M12.5 10C12.5 11.3807 11.3807 12.5 10 12.5C8.61929 12.5 7.5 11.3807 7.5 10C7.5 8.61929 8.61929 7.5 10 7.5C11.3807 7.5 12.5 8.61929 12.5 10Z" stroke="#1C274C" stroke-width="1.5"/>
</svg>
