<svg width="26" height="26" viewBox="0 0 26 26" fill="none" xmlns="http://www.w3.org/2000/svg">
<path d="M16.2478 7.58333C16.2347 5.22705 16.1302 3.95098 15.2978 3.11857C14.3459 2.16666 12.8138 2.16666 9.74969 2.16666L8.66635 2.16666C5.60222 2.16666 4.07016 2.16666 3.11825 3.11857C2.16635 4.07047 2.16635 5.60253 2.16635 8.66666L2.16635 17.3333C2.16635 20.3975 2.16635 21.9295 3.11825 22.8814C4.07016 23.8333 5.60222 23.8333 8.66635 23.8333L9.74969 23.8333C12.8138 23.8333 14.3459 23.8333 15.2978 22.8814C16.1302 22.049 16.2347 20.7729 16.2478 18.4167" stroke="white" stroke-width="1.5" stroke-linecap="round"/>
<path d="M9.75 13L23.8333 13M23.8333 13L20.0417 9.75M23.8333 13L20.0417 16.25" stroke="white" stroke-width="1.5" stroke-linecap="round" stroke-linejoin="round"/>
</svg>
