<svg width="20" height="20" viewBox="0 0 20 20" fill="none" xmlns="http://www.w3.org/2000/svg">
<g clip-path="url(#clip0_280_2686)">
<path d="M7.50159 5.83341C7.51168 4.02089 7.59205 3.0393 8.23237 2.39898C8.9646 1.66675 10.1431 1.66675 12.5001 1.66675L13.3335 1.66675C15.6905 1.66675 16.869 1.66675 17.6012 2.39898C18.3335 3.13121 18.3335 4.30973 18.3335 6.66675L18.3335 13.3334C18.3335 15.6904 18.3335 16.8689 17.6012 17.6012C16.869 18.3334 15.6905 18.3334 13.3335 18.3334L12.5001 18.3334C10.1431 18.3334 8.9646 18.3334 8.23237 17.6012C7.59205 16.9609 7.51168 15.9793 7.50159 14.1667" stroke="#303030" stroke-width="1.5" stroke-linecap="round"/>
<path d="M12.5 10L1.66667 10M1.66667 10L4.58333 7.5M1.66667 10L4.58333 12.5" stroke="#303030" stroke-width="1.5" stroke-linecap="round" stroke-linejoin="round"/>
</g>
<defs>
<clipPath id="clip0_280_2686">
<rect width="20" height="20" rx="5" fill="white"/>
</clipPath>
</defs>
</svg>
