<svg width="30" height="33" viewBox="0 0 30 33" fill="none" xmlns="http://www.w3.org/2000/svg">
<path d="M29.9974 22.908C28.617 25.6798 27.312 28.299 26.007 30.9195C25.7367 31.4632 25.4975 32.0277 25.1752 32.5387C25.0439 32.746 24.7306 32.9611 24.498 32.9624C20.6428 32.9872 16.7863 33.0328 12.9324 32.9624C8.37667 32.879 5.19868 28.1112 6.73244 23.7659C6.81822 23.5221 6.91441 23.2822 7.00149 23.0527C6.23202 22.8832 5.45214 22.7946 4.73206 22.5378C0.741697 21.118 -1.1365 16.5888 0.718304 12.7832C2.72518 8.66727 4.80224 4.58656 6.83642 0.484999C7.00019 0.15385 7.18347 -0.00129559 7.5708 8.14695e-06C11.0581 0.0143493 14.5455 0.00913583 18.0328 0.0117433C18.1589 0.0117433 18.2863 0.0378173 18.5085 0.0638921C14.7158 7.67512 10.9477 15.2381 7.12497 22.908H30H29.9974Z" fill="url(#paint0_linear_280_2382)"/>
<defs>
<linearGradient id="paint0_linear_280_2382" x1="15" y1="0" x2="15" y2="33" gradientUnits="userSpaceOnUse">
<stop stop-color="#836AD4"/>
<stop offset="1" stop-color="#7258C6"/>
</linearGradient>
</defs>
</svg>
