<svg width="28" height="28" viewBox="0 0 28 28" fill="none" xmlns="http://www.w3.org/2000/svg">
<path d="M25.6667 11.6667C25.6882 12.515 25.6667 12.8967 25.6667 14.0001C25.6667 18.3999 25.6667 20.5997 24.2998 21.9666C22.933 23.3334 20.7331 23.3334 16.3333 23.3334H11.6667C7.2669 23.3334 5.06701 23.3334 3.70018 21.9666C2.33334 20.5997 2.33334 18.3999 2.33334 14.0001C2.33334 9.60031 2.33334 7.40042 3.70018 6.03358C5.06701 4.66675 7.2669 4.66675 11.6667 4.66675H15.1667" stroke="white" stroke-width="2" stroke-linecap="round"/>
<path d="M7 9.33325L9.51871 11.4322C11.6615 13.2178 12.7328 14.1106 14 14.1106C15.2672 14.1106 16.3385 13.2178 18.4813 11.4322" stroke="white" stroke-width="2" stroke-linecap="round"/>
<circle cx="22.1667" cy="5.83325" r="3.5" stroke="white" stroke-width="2"/>
</svg>
