<svg width="16" height="17" viewBox="0 0 16 17" fill="none" xmlns="http://www.w3.org/2000/svg">
<path fill-rule="evenodd" clip-rule="evenodd" d="M6.39485 2.63343C6.2325 2.77179 6.15132 2.84097 6.06463 2.89908C5.86589 3.03228 5.6427 3.12473 5.40799 3.17107C5.30559 3.19128 5.19927 3.19977 4.98664 3.21674C4.45238 3.25937 4.18525 3.28069 3.96239 3.3594C3.44692 3.54147 3.04147 3.94692 2.8594 4.46239C2.78069 4.68525 2.75937 4.95238 2.71674 5.48664C2.69977 5.69927 2.69128 5.80559 2.67107 5.90799C2.62473 6.1427 2.53228 6.36589 2.39908 6.56463C2.34097 6.65132 2.27179 6.7325 2.13343 6.89485C1.78581 7.30277 1.61199 7.50674 1.51006 7.71999C1.27432 8.21322 1.27432 8.78662 1.51006 9.27985C1.61199 9.4931 1.7858 9.69706 2.13343 10.105C2.27178 10.2673 2.34097 10.3485 2.39908 10.4352C2.53228 10.6339 2.62473 10.8571 2.67107 11.0919C2.69128 11.1942 2.69977 11.3006 2.71674 11.5132C2.75937 12.0475 2.78069 12.3146 2.8594 12.5374C3.04147 13.0529 3.44692 13.4584 3.96239 13.6404C4.18525 13.7192 4.45238 13.7405 4.98664 13.7831C5.19927 13.8001 5.30559 13.8086 5.40799 13.8288C5.6427 13.8751 5.86589 13.9676 6.06463 14.1008C6.15132 14.1589 6.2325 14.228 6.39485 14.3664C6.80278 14.714 7.00674 14.8878 7.21999 14.9898C7.71322 15.2255 8.28662 15.2255 8.77985 14.9898C8.9931 14.8878 9.19706 14.714 9.60498 14.3664C9.76734 14.228 9.84851 14.1589 9.93521 14.1008C10.1339 13.9676 10.3571 13.8751 10.5919 13.8288C10.6942 13.8086 10.8006 13.8001 11.0132 13.7831C11.5475 13.7405 11.8146 13.7192 12.0374 13.6404C12.5529 13.4584 12.9584 13.0529 13.1404 12.5374C13.2192 12.3146 13.2405 12.0475 13.2831 11.5132C13.3001 11.3006 13.3086 11.1942 13.3288 11.0919C13.3751 10.8571 13.4676 10.6339 13.6008 10.4352C13.6589 10.3485 13.728 10.2673 13.8664 10.105C14.214 9.69706 14.3878 9.4931 14.4898 9.27985C14.7255 8.78662 14.7255 8.21322 14.4898 7.71999C14.3878 7.50674 14.214 7.30278 13.8664 6.89485C13.728 6.7325 13.6589 6.65132 13.6008 6.56463C13.4676 6.36589 13.3751 6.1427 13.3288 5.90799C13.3086 5.80559 13.3001 5.69927 13.2831 5.48664C13.2405 4.95238 13.2192 4.68525 13.1404 4.46239C12.9584 3.94692 12.5529 3.54147 12.0374 3.3594C11.8146 3.28069 11.5475 3.25937 11.0132 3.21674C10.8006 3.19977 10.6942 3.19128 10.5919 3.17107C10.3571 3.12473 10.1339 3.03228 9.93521 2.89908C9.84851 2.84097 9.76734 2.77179 9.60498 2.63343C9.19706 2.2858 8.9931 2.11199 8.77985 2.01006C8.28662 1.77432 7.71322 1.77432 7.21999 2.01006C7.00674 2.11199 6.80277 2.28581 6.39485 2.63343ZM10.9156 7.07534C11.1275 6.86345 11.1275 6.51992 10.9156 6.30803C10.7037 6.09614 10.3602 6.09614 10.1483 6.30803L6.91476 9.54153L5.85156 8.47832C5.63967 8.26643 5.29613 8.26643 5.08424 8.47832C4.87236 8.69021 4.87236 9.03375 5.08424 9.24564L6.53111 10.6925C6.74299 10.9044 7.08653 10.9044 7.29842 10.6925L10.9156 7.07534Z" fill="white"/>
</svg>
